<svg width="100" height="100" viewBox="0 0 100 100" fill="none" xmlns="http://www.w3.org/2000/svg">
<path fill-rule="evenodd" clip-rule="evenodd" d="M71.582 9.86333C72.567 9.65451 73.3158 9.98001 73.8281 10.8399C74.3633 11.7313 74.8516 12.6428 75.293 13.5743C71.9205 16.5447 71.9205 19.507 75.293 22.461C77.0076 23.402 78.7004 23.3694 80.3711 22.3633C81.1629 23.5885 81.8789 24.8581 82.5195 26.1719C79.8383 28.4071 79.4152 30.9786 81.25 33.8868C82.2603 35.0266 83.5299 35.6126 85.0586 35.6446C85.999 35.5383 86.9105 35.3756 87.793 35.1563C88.5014 36.3448 89.185 37.5493 89.8437 38.7696C90.1129 39.6286 89.8852 40.3122 89.1602 40.8204C84.7982 43.3594 80.4361 45.8985 76.0742 48.4376C56.2172 48.6002 36.3604 48.5678 16.5039 48.3399C15.6206 46.9639 14.8393 45.5317 14.1602 44.043C14.2934 43.4833 14.5538 42.995 14.9414 42.5782C33.8658 31.7172 52.7461 20.8124 71.582 9.86333Z" fill="#FFD700"/>
<path fill-rule="evenodd" clip-rule="evenodd" d="M11.0356 51.6602C18.0018 51.6602 24.9678 51.6602 31.9341 51.6602C31.9016 52.9639 31.9341 54.266 32.0317 55.5664C33.1235 57.1649 34.1001 57.0998 34.9614 55.3711C35.0591 54.1358 35.0915 52.8989 35.0591 51.6602C50.7493 51.6276 66.4393 51.6602 82.1294 51.7578C82.7296 51.9022 83.1528 52.2602 83.3989 52.8321C83.4966 54.328 83.529 55.8254 83.4966 57.3242C80.0878 57.5104 78.2649 59.3008 78.0278 62.6953C78.2649 66.0899 80.0878 67.8803 83.4966 68.0664C83.4966 69.694 83.4966 71.3217 83.4966 72.9492C80.0932 73.1299 78.2704 74.9201 78.0278 78.3203C78.2649 81.7149 80.0878 83.5053 83.4966 83.6914C83.529 85.3854 83.4966 87.0782 83.3989 88.7696C83.1798 89.1844 82.8868 89.5424 82.52 89.8438C66.6999 89.9414 50.8796 89.9741 35.0591 89.9414C35.0915 89.0926 35.0589 88.2463 34.9614 87.4024C34.0493 85.942 33.0727 85.8768 32.0317 87.2071C31.9342 88.1162 31.9016 89.0276 31.9341 89.9414C24.9024 89.9741 17.8713 89.9414 10.8403 89.8438C10.4171 89.6811 10.1241 89.3881 9.9614 88.9649C9.8638 87.3385 9.83124 85.711 9.86374 84.0821C13.1408 83.7672 14.9637 81.9768 15.3325 78.711C15.0596 75.3783 13.2692 73.5229 9.9614 73.1446C9.8638 71.5834 9.83124 70.0209 9.86374 68.4571C13.1405 68.1426 14.9634 66.3522 15.3325 63.086C14.9941 59.818 13.2037 57.9625 9.9614 57.5196C9.83118 55.892 9.83118 54.2643 9.9614 52.6367C10.2254 52.1975 10.5834 51.8719 11.0356 51.6602ZM49.3169 56.9336C52.6063 56.809 54.7221 58.3063 55.6645 61.4258C56.4237 64.3592 55.6749 66.8006 53.4184 68.75C50.1915 70.4633 47.4895 69.8449 45.313 66.8946C45.0792 66.3889 44.8839 65.868 44.727 65.3321C43.8389 61.1129 45.369 58.3133 49.3169 56.9336ZM66.6997 57.3242C68.0053 57.0686 68.7866 57.5893 69.0434 58.8867C68.9266 59.1397 68.829 59.4 68.7505 59.668C62.2778 67.892 55.7348 76.0627 49.1216 84.1797C48.13 84.586 47.3811 84.293 46.8755 83.3008C46.7376 82.8182 46.8026 82.3623 47.0708 81.9336C53.5872 73.694 60.1301 65.4908 66.6997 57.3242ZM32.9106 59.0821C33.8717 58.9928 34.5553 59.3834 34.9614 60.2539C35.0917 61.6862 35.0917 63.1186 34.9614 64.5508C34.4682 65.7135 33.6546 66.0065 32.52 65.4297C32.2854 65.2533 32.1225 65.0256 32.0317 64.7461C31.9014 63.1836 31.9014 61.6211 32.0317 60.0586C32.2647 59.6686 32.5577 59.343 32.9106 59.0821ZM33.1059 68.0664C33.7944 68.0364 34.3479 68.2967 34.7661 68.8477C34.9817 69.6719 35.0794 70.5182 35.0591 71.3867C35.0264 72.103 34.994 72.819 34.9614 73.5352C34.5675 74.5946 33.8188 74.9528 32.7153 74.6094C32.4128 74.3723 32.185 74.0793 32.0317 73.7305C31.9014 72.168 31.9014 70.6055 32.0317 69.043C32.3696 68.6715 32.7276 68.3459 33.1059 68.0664ZM64.3559 71.9727C69.4024 72.1065 71.6485 74.7106 71.0942 79.7852C70.2848 83.2647 68.1038 84.8598 64.5512 84.5703C61.9413 83.9131 60.4112 82.253 59.9614 79.5899C59.421 75.8489 60.8858 73.3098 64.3559 71.9727ZM32.9106 77.2461C33.9403 77.0604 34.6239 77.451 34.9614 78.418C35.0917 79.8502 35.0917 81.2826 34.9614 82.7149C33.9848 84.2774 33.0083 84.2774 32.0317 82.7149C31.9014 81.2174 31.9014 79.7201 32.0317 78.2227C32.2319 77.7955 32.5249 77.4699 32.9106 77.2461Z" fill="#FFD700"/>
<path fill-rule="evenodd" clip-rule="evenodd" d="M49.902 60.0586C51.2009 60.039 52.0798 60.625 52.5388 61.8164C52.669 62.858 52.669 63.8998 52.5388 64.9414C51.7475 66.4793 50.5431 66.9025 48.9255 66.2109C48.4108 65.8279 48.0526 65.3396 47.8513 64.7461C47.685 63.6224 47.7503 62.5156 48.0466 61.4258C48.5231 60.7508 49.1417 60.2951 49.902 60.0586Z" fill="#FFD700"/>
<path fill-rule="evenodd" clip-rule="evenodd" d="M64.9414 75.0977C66.6035 74.933 67.6127 75.6492 67.9688 77.2461C68.1154 78.2367 68.0504 79.2133 67.7734 80.1758C66.2854 81.9963 64.7881 81.9963 63.2812 80.1758C62.8906 78.9389 62.8906 77.7018 63.2812 76.4649C63.6428 75.7506 64.1961 75.2949 64.9414 75.0977Z" fill="#FFD700"/>
</svg>
